<svg width="200" height="60" viewBox="0 0 200 60" fill="none" xmlns="http://www.w3.org/2000/svg">
<g clip-path="url(#clip0_40_13)">
<g filter="url(#filter0_d_40_13)">
<path d="M53.25 6H29.75C23.2607 6 18 11.2607 18 17.75V41.25C18 47.7393 23.2607 53 29.75 53H53.25C59.7393 53 65 47.7393 65 41.25V17.75C65 11.2607 59.7393 6 53.25 6Z" fill="white"/>
</g>
<path d="M41.4999 27.9332C44.5283 27.9332 46.9833 25.4782 46.9833 22.4499C46.9833 19.4215 44.5283 16.9666 41.4999 16.9666C38.4716 16.9666 36.0166 19.4215 36.0166 22.4499C36.0166 25.4782 38.4716 27.9332 41.4999 27.9332Z" stroke="url(#paint0_linear_40_13)" stroke-width="3"/>
<path d="M32.0996 41.2501C32.0996 36.0801 36.3296 31.8501 41.4996 31.8501C46.6696 31.8501 50.8996 36.0801 50.8996 41.2501" stroke="url(#paint1_linear_40_13)" stroke-width="3" stroke-linecap="round"/>
<path d="M94.672 23.152L90.28 40H85.312L82.624 28.912L79.84 40H74.872L70.6 23.152H74.992L77.416 35.416L80.416 23.152H84.928L87.808 35.416L90.256 23.152H94.672ZM104.962 26.464C106.498 26.464 107.73 26.976 108.658 28C109.586 29.008 110.05 30.4 110.05 32.176V40H105.97V32.728C105.97 31.832 105.738 31.136 105.274 30.64C104.81 30.144 104.186 29.896 103.402 29.896C102.618 29.896 101.994 30.144 101.53 30.64C101.066 31.136 100.834 31.832 100.834 32.728V40H96.7302V22.24H100.834V28.408C101.25 27.816 101.818 27.344 102.538 26.992C103.258 26.64 104.066 26.464 104.962 26.464ZM118.998 40.192C117.686 40.192 116.502 39.912 115.446 39.352C114.406 38.792 113.582 37.992 112.974 36.952C112.382 35.912 112.086 34.696 112.086 33.304C112.086 31.928 112.39 30.72 112.998 29.68C113.606 28.624 114.438 27.816 115.494 27.256C116.55 26.696 117.734 26.416 119.046 26.416C120.358 26.416 121.542 26.696 122.598 27.256C123.654 27.816 124.486 28.624 125.094 29.68C125.702 30.72 126.006 31.928 126.006 33.304C126.006 34.68 125.694 35.896 125.07 36.952C124.462 37.992 123.622 38.792 122.55 39.352C121.494 39.912 120.31 40.192 118.998 40.192ZM118.998 36.64C119.782 36.64 120.446 36.352 120.99 35.776C121.55 35.2 121.83 34.376 121.83 33.304C121.83 32.232 121.558 31.408 121.014 30.832C120.486 30.256 119.83 29.968 119.046 29.968C118.246 29.968 117.582 30.256 117.054 30.832C116.526 31.392 116.262 32.216 116.262 33.304C116.262 34.376 116.518 35.2 117.03 35.776C117.558 36.352 118.214 36.64 118.998 36.64ZM127.367 33.28C127.367 31.904 127.623 30.696 128.135 29.656C128.663 28.616 129.375 27.816 130.271 27.256C131.167 26.696 132.167 26.416 133.271 26.416C134.215 26.416 135.039 26.608 135.743 26.992C136.463 27.376 137.015 27.88 137.399 28.504V26.608H141.503V40H137.399V38.104C136.999 38.728 136.439 39.232 135.719 39.616C135.015 40 134.191 40.192 133.247 40.192C132.159 40.192 131.167 39.912 130.271 39.352C129.375 38.776 128.663 37.968 128.135 36.928C127.623 35.872 127.367 34.656 127.367 33.28ZM137.399 33.304C137.399 32.28 137.111 31.472 136.535 30.88C135.975 30.288 135.287 29.992 134.471 29.992C133.655 29.992 132.959 30.288 132.383 30.88C131.823 31.456 131.543 32.256 131.543 33.28C131.543 34.304 131.823 35.12 132.383 35.728C132.959 36.32 133.655 36.616 134.471 36.616C135.287 36.616 135.975 36.32 136.535 35.728C137.111 35.136 137.399 34.328 137.399 33.304ZM161.56 26.464C163.224 26.464 164.544 26.968 165.52 27.976C166.512 28.984 167.008 30.384 167.008 32.176V40H162.928V32.728C162.928 31.864 162.696 31.2 162.232 30.736C161.784 30.256 161.16 30.016 160.36 30.016C159.56 30.016 158.928 30.256 158.464 30.736C158.016 31.2 157.792 31.864 157.792 32.728V40H153.712V32.728C153.712 31.864 153.48 31.2 153.016 30.736C152.568 30.256 151.944 30.016 151.144 30.016C150.344 30.016 149.712 30.256 149.248 30.736C148.8 31.2 148.576 31.864 148.576 32.728V40H144.472V26.608H148.576V28.288C148.992 27.728 149.536 27.288 150.208 26.968C150.88 26.632 151.64 26.464 152.488 26.464C153.496 26.464 154.392 26.68 155.176 27.112C155.976 27.544 156.6 28.16 157.048 28.96C157.512 28.224 158.144 27.624 158.944 27.16C159.744 26.696 160.616 26.464 161.56 26.464ZM171.943 25.216C171.223 25.216 170.631 25.008 170.167 24.592C169.719 24.16 169.495 23.632 169.495 23.008C169.495 22.368 169.719 21.84 170.167 21.424C170.631 20.992 171.223 20.776 171.943 20.776C172.647 20.776 173.223 20.992 173.671 21.424C174.135 21.84 174.367 22.368 174.367 23.008C174.367 23.632 174.135 24.16 173.671 24.592C173.223 25.008 172.647 25.216 171.943 25.216ZM173.983 26.608V40H169.879V26.608H173.983Z" fill="url(#paint2_linear_40_13)"/>
<path d="M52.9169 27.5776L49.4994 30.7992L48.3945 29.22" stroke="url(#paint3_linear_40_13)" stroke-miterlimit="1.04569" stroke-linecap="round" stroke-linejoin="round"/>
</g>
<defs>
<filter id="filter0_d_40_13" x="14" y="6" width="55" height="55" filterUnits="userSpaceOnUse" color-interpolation-filters="sRGB">
<feFlood flood-opacity="0" result="BackgroundImageFix"/>
<feColorMatrix in="SourceAlpha" type="matrix" values="0 0 0 0 0 0 0 0 0 0 0 0 0 0 0 0 0 0 127 0" result="hardAlpha"/>
<feOffset dy="4"/>
<feGaussianBlur stdDeviation="2"/>
<feComposite in2="hardAlpha" operator="out"/>
<feColorMatrix type="matrix" values="0 0 0 0 0 0 0 0 0 0 0 0 0 0 0 0 0 0 0.25 0"/>
<feBlend mode="normal" in2="BackgroundImageFix" result="effect1_dropShadow_40_13"/>
<feBlend mode="normal" in="SourceGraphic" in2="effect1_dropShadow_40_13" result="shape"/>
</filter>
<linearGradient id="paint0_linear_40_13" x1="41.4999" y1="16.9666" x2="41.4999" y2="27.9332" gradientUnits="userSpaceOnUse">
<stop stop-color="#2563EB"/>
<stop offset="1" stop-color="#5EA3F9"/>
</linearGradient>
<linearGradient id="paint1_linear_40_13" x1="41.4996" y1="31.8501" x2="41.4996" y2="41.2501" gradientUnits="userSpaceOnUse">
<stop stop-color="#2563EB"/>
<stop offset="1" stop-color="#5EA3F9"/>
</linearGradient>
<linearGradient id="paint2_linear_40_13" x1="70" y1="29.5" x2="176" y2="28.5" gradientUnits="userSpaceOnUse">
<stop stop-color="#2563EB"/>
<stop offset="1" stop-color="#60A5FA"/>
</linearGradient>
<linearGradient id="paint3_linear_40_13" x1="51.6953" y1="26.7888" x2="49.2216" y2="30.6198" gradientUnits="userSpaceOnUse">
<stop stop-color="#5EA3F9"/>
<stop offset="1" stop-color="#2563EB"/>
</linearGradient>
<clipPath id="clip0_40_13">
<rect width="200" height="60" fill="white"/>
</clipPath>
</defs>
</svg>
